<svg class="md:h-12 h-8" xmlns="http://www.w3.org/2000/svg" viewBox="0 0 196.84 295.75"><g id="Layer_1-2"><path d="M140.75 148.45c-27.58 13.31-26.26 20.59-32.96 42.04-.09.26-.17.53-.25.79-4.48 14.52-4.52 15.56-8.46 29.79L89.61 252h-6.72c-43.96 0-81.12-37.84-82.8-86.35-.06-1.73-.09-3.49-.09-5.29 0-56.68 25.11-81.01 35.63-88.71 6 27.91 30.82 48.82 60.52 48.82 14.67 0 28.14-5.1 38.74-13.63.01.01.02 0 .02 0 18.81-9.07 33.09 28.46 5.84 41.62Z" fill="#9ba2ae"></path><path d="m3.88 1.06l29.92-42.84H89.59ZM189.64 23.85a36.36 36.36 0 0 0-6.6-11.1 34.65 34.65 0 0 0-6.9-6.19c-2.36-1.65-4.9-3-7.57-4.01A36.44 36.44 0 0 0 149.7.42c-2.5.39-4.99 1.02-7.45 1.95-6.69 2.51-12.21 6.76-16.24 12.07-8.53-5.79-18.81-9.18-29.87-9.18s-21.33 3.38-29.85 9.17c-4.03-5.3-9.55-9.54-16.23-12.06C47.6 1.44 45.11.81 42.61.42a36.44 36.44 0 0 0-18.87 2.13 34.781 34.781 0 0 0-7.57 4.01 34.65 34.65 0 0 0-6.9 6.19 36.56 36.56 0 0 0-6.6 11.1C-.05 31.11-.34 38.71 1.43 45.7c.18.71 1 1.01 1.63.64 2.33-1.36 4.81-2.45 7.38-3.27.61-.19 1.23.21 1.35.83a36.727 36.727 0 0 0 8.49 17.23c.36.41 1 .38 1.35-.04 1.86-2.26 3.98-4.25 6.29-5.96.38-.28.91-.26 1.29.04 2.87 2.28 6.14 4.13 9.73 5.48 1.33.5 2.67.92 4.01 1.26.25 3.93.92 7.74 1.97 11.4 6.41 22.23 26.95 38.54 51.22 38.54 8.36 0 16.28-1.94 23.33-5.39 16.78-8.19 28.63-24.95 29.86-44.54 1.35-.34 2.69-.76 4.03-1.26 3.6-1.35 6.86-3.2 9.73-5.48.37-.3.9-.32 1.29-.04a35.81 35.81 0 0 1 6.29 5.96c.35.42.99.45 1.35.04a36.773 36.773 0 0 0 8.49-17.23c.12-.62.75-1.02 1.35-.83 2.58.82 5.06 1.91Z" fill="#9ba2ae"></path><path d="M114.01 84.17c0 4.71-.73 9.14-2.03 13.03-.23.7-.75 1.27-1.39 1.63-3.9 2.15-8.93 3.45-14.43 3.45s-10.57-1.29-14.47-3.46c-.64-.36-1.15-.93-1.39-1.63-1.3-3.89-2.02-8.32-2.02-13.02 0-1.92.13-3.8.36-5.63 1.65-12.87 8.85-22.58 17.51-22.58s15.84 9.69 17.49 22.56c.24 1.83.36 3.71.36 5.65Z" fill="#11191f"></path><circle cx="122.7" cy="64.51" r="5.73" fill="#11191f"></circle><circle cx="69.6" cy="64.51" r="5.73" fill="#11191f"></circle></g></svg>